<?xml version="1.0" standalone="no"?>
<!DOCTYPE svg PUBLIC "-//W3C//DTD SVG 20010904//EN"
 "http://www.w3.org/TR/2001/REC-SVG-20010904/DTD/svg10.dtd">
<svg version="1.0" xmlns="http://www.w3.org/2000/svg"
 width="132.000000pt" height="132.000000pt" viewBox="0 0 132.000000 132.000000"
 preserveAspectRatio="xMidYMid meet">
<metadata>
Created by potrace 1.14, written by Peter Selinger 2001-2017
</metadata>
<g transform="translate(0.000000,132.000000) scale(0.100000,-0.100000)"
fill="#000000" stroke="none">
<path d="M656 1303 c-6 -14 -5 -15 5 -6 7 7 10 15 7 18 -3 3 -9 -2 -12 -12z"/>
<path d="M850 1299 c0 -5 5 -7 10 -4 6 3 10 8 10 11 0 2 -4 4 -10 4 -5 0 -10
-5 -10 -11z"/>
<path d="M559 1153 c-13 -16 -12 -17 4 -4 9 7 17 15 17 17 0 8 -8 3 -21 -13z"/>
<path d="M93 919 c-19 -19 -16 -57 5 -67 9 -4 57 -7 107 -7 85 2 91 1 117 -25
22 -23 27 -36 26 -74 l-1 -46 -90 0 c-70 0 -100 -5 -132 -20 -110 -53 -113
-211 -5 -274 27 -16 54 -20 154 -21 66 -1 128 2 136 6 14 7 237 -94 268 -121
6 -6 12 -24 12 -39 0 -22 -7 -31 -30 -41 -37 -15 -135 -8 -200 15 -44 15 -46
15 -62 -5 -23 -28 -11 -51 39 -76 30 -15 60 -19 138 -18 55 0 111 2 125 3 14
2 34 0 45 -3 11 -4 28 -1 39 7 18 13 20 29 22 158 1 79 2 147 3 150 1 5 64 5
93 0 11 -2 7 -91 -5 -91 -8 0 -7 -4 1 -12 8 -8 12 -46 12 -105 0 -81 2 -94 19
-103 65 -34 77 14 72 285 -1 27 2 36 8 26 7 -10 10 -10 13 -1 3 10 11 10 41 1
l37 -13 0 -138 c0 -146 7 -170 49 -170 36 0 41 20 41 171 0 130 -2 149 -20
171 -10 14 -16 29 -12 33 4 5 1 5 -5 1 -8 -4 -13 -2 -13 5 0 7 -3 10 -6 6 -3
-3 -17 -1 -31 4 -40 15 -359 15 -377 0 -9 -7 -15 -28 -14 -49 0 -21 0 -49 -1
-64 l-1 -26 -72 36 c-40 20 -75 36 -78 37 -33 10 -82 39 -87 50 -10 28 6 63
35 73 33 11 114 5 123 -10 3 -5 9 -9 13 -9 19 3 27 0 22 -8 -7 -11 45 -1 62
12 7 5 10 18 6 30 -4 13 -2 17 5 13 6 -4 11 -5 11 -2 0 3 -24 18 -52 33 -68
35 -196 40 -240 9 l-28 -18 -1 98 c-1 119 -3 131 -26 163 -43 57 -66 66 -186
69 -82 3 -115 0 -124 -9z m254 -377 l1 -72 -93 0 c-89 0 -95 1 -114 26 -24 30
-26 61 -7 86 20 27 51 34 135 33 l76 -1 2 -72z"/>
<path d="M806 852 c-3 -5 1 -9 9 -9 8 0 12 4 9 9 -3 4 -7 8 -9 8 -2 0 -6 -4
-9 -8z"/>
<path d="M455 760 c3 -5 8 -10 11 -10 2 0 4 5 4 10 0 6 -5 10 -11 10 -5 0 -7
-4 -4 -10z"/>
<path d="M830 736 c0 -2 8 -10 18 -17 15 -13 16 -12 3 4 -13 16 -21 21 -21 13z"/>
</g>
</svg>
