<svg width="70" height="70" viewBox="0 0 100 100" fill="none" xmlns="http://www.w3.org/2000/svg">
<path d="M30.7656 45.3789L36.8268 45.9573H30.7656V45.3789ZM36.2101 45.3789H30.7656L36.8268 45.9573L36.2101 45.3789Z" fill="#BABABA"/>
<path d="M35.8594 45.959L36.9012 46.0356H35.936L35.8594 45.959ZM36.8246 45.959H35.8594L36.9012 46.0356L36.8246 45.959Z" fill="#BABABA"/>
<path d="M30.7656 45.959L35.785 46.0356H30.7656V45.959ZM35.8616 45.959H30.7656L35.785 46.0356L35.8616 45.959Z" fill="#BABABA"/>
<path d="M35.9375 46.0352L38.9097 48.0039H37.9828L35.9375 46.0352ZM36.9027 46.0352H35.9375L38.9097 48.0039L36.9027 46.0352Z" fill="#BABABA"/>
<path d="M37.9825 48.0039L39.1027 48.1973H37.7891L37.9825 48.0039ZM38.9093 48.0039H37.9825L39.1027 48.1973L38.9093 48.0039Z" fill="#BABABA"/>
<path d="M38.1719 48.1973L40.9908 50.051H40.0639L38.1719 48.1973ZM39.0987 48.1973H38.1719L40.9908 50.051L39.0987 48.1973Z" fill="#BABABA"/>
<path d="M37.7894 48.1973L36.2842 50.051H35.9375L37.7894 48.1973ZM38.1762 48.1973H37.7894L36.2842 50.051L38.1762 48.1973Z" fill="#BABABA"/>
<path d="M35.4377 46.0352L31.8087 50.051H31.4219L35.4377 46.0352ZM35.7862 46.0352H35.4395L31.8105 50.051L35.7862 46.0352Z" fill="#BABABA"/>
<path d="M30.7656 46.0352L31.4225 50.051H30.7656V46.0352ZM31.4225 46.0352H30.7656L31.4225 50.051V46.0352Z" fill="#BABABA"/>
<path d="M40.0703 50.0508L41.1906 50.2059H40.2637L40.0703 50.0508ZM40.9972 50.0508H40.0703L41.1906 50.2059L40.9972 50.0508Z" fill="#BABABA"/>
<path d="M40.2637 50.207L41.384 50.4004H40.0703L40.2637 50.207ZM41.1906 50.207H40.2637L41.384 50.4004L41.1906 50.207Z" fill="#BABABA"/>
<path d="M30.7656 50.0508L31.4225 50.3974H30.7656V50.0508ZM31.8074 50.0508H30.7656L31.4225 50.3974L31.8074 50.0508Z" fill="#BABABA"/>
<path d="M40.4549 50.3984L42.1919 51.2085H41.2651L40.4549 50.3984ZM41.38 50.3984H40.4531L42.1901 51.2085L41.38 50.3984Z" fill="#BABABA"/>
<path d="M41.2734 51.2109L42.2003 51.481H41.5435L41.2734 51.2109ZM42.2003 51.2109H41.2734L42.2003 51.481V51.2109Z" fill="#BABABA"/>
<path d="M41.5391 51.4824L42.1959 53.4511H41.5391V51.4824ZM42.1959 51.4824H41.5391L42.1959 53.4511V51.4824Z" fill="#BABABA"/>
<path d="M41.5342 53.4492L42.191 53.7959H41.1875L41.5342 53.4492ZM42.191 53.4492H41.5342L42.191 53.7959V53.4492Z" fill="#BABABA"/>
<path d="M35.9395 50.0508L31.8087 54.5301H31.4219L35.9395 50.0508ZM36.2861 50.0508H35.9395L31.8087 54.5301L36.2861 50.0508Z" fill="#BABABA"/>
<path d="M30.7656 50.3984L31.4225 54.5292H30.7656V50.3984ZM31.4225 50.3984H30.7656L31.4225 54.5292V50.3984Z" fill="#BABABA"/>
<path d="M30.7656 54.5312L31.4225 54.9181H30.7656V54.5312ZM31.8074 54.5312H30.7656L31.4225 54.9181L31.8074 54.5312Z" fill="#BABABA"/>
<path d="M41.5391 53.7969L42.1959 57.9277H41.5391V53.7969ZM42.1959 53.7969H41.5391L42.1959 57.9277V53.7969Z" fill="#BABABA"/>
<path d="M41.5342 57.9297L42.191 58.3165H41.1875L41.5342 57.9297ZM42.191 57.9297H41.5342L42.191 58.3165V57.9297Z" fill="#BABABA"/>
<path d="M40.0721 50.3984L31.8087 59.0468H31.4219L40.0721 50.3984ZM40.4589 50.3984H40.0721L31.8087 59.0468L40.4589 50.3984Z" fill="#BABABA"/>
<path d="M30.7656 54.916L31.4225 59.0468H30.7656V54.916ZM31.4225 54.916H30.7656L31.4225 59.0468V54.916Z" fill="#BABABA"/>
<path d="M30.7656 59.0488L31.4225 59.4356H30.7656V59.0488ZM31.8074 59.0488H30.7656L31.4225 59.4356L31.8074 59.0488Z" fill="#BABABA"/>
<path d="M41.5391 58.3145L42.1959 62.4452H41.5391V58.3145ZM42.1959 58.3145H41.5391L42.1959 62.4452V58.3145Z" fill="#BABABA"/>
<path d="M41.5342 62.4453L42.191 62.8321H41.1875L41.5342 62.4453ZM42.191 62.4453H41.5342L42.191 62.8321V62.4453Z" fill="#BABABA"/>
<path d="M41.1905 53.7969L31.8087 63.5655H31.4219L41.1905 53.7969ZM41.5372 53.7969H41.1905L31.8087 63.5655L41.5372 53.7969Z" fill="#BABABA"/>
<path d="M30.7656 59.4336L31.4225 63.5644H30.7656V59.4336ZM31.4225 59.4336H30.7656L31.4225 63.5644V59.4336Z" fill="#BABABA"/>
<path d="M30.7656 63.5645L31.4225 63.9111H30.7656V63.5645ZM31.8074 63.5645H30.7656L31.4225 63.9111L31.8074 63.5645Z" fill="#BABABA"/>
<path d="M41.5391 62.832L42.1959 66.9628H41.5391V62.832ZM42.1959 62.832H41.5391L42.1959 66.9628V62.832Z" fill="#BABABA"/>
<path d="M41.5342 66.9648L42.191 67.3115H41.1875L41.5342 66.9648ZM42.191 66.9648H41.5342L42.191 67.3115V66.9648Z" fill="#BABABA"/>
<path d="M41.1905 58.3145L31.8087 68.0448H31.4219L41.1905 58.3145ZM41.5372 58.3145H41.1905L31.8087 68.0448L41.5372 58.3145Z" fill="#BABABA"/>
<path d="M30.7656 63.9121L31.4225 68.0429H30.7656V63.9121ZM31.4225 63.9121H30.7656L31.4225 68.0429V63.9121Z" fill="#BABABA"/>
<path d="M30.7656 68.0449L31.4225 68.4317H30.7656V68.0449ZM31.8074 68.0449H30.7656L31.4225 68.4317L31.8074 68.0449Z" fill="#BABABA"/>
<path d="M41.5391 67.3105L42.1959 71.4413H41.5391V67.3105ZM42.1959 67.3105H41.5391L42.1959 71.4413V67.3105Z" fill="#BABABA"/>
<path d="M41.1905 62.832L31.8087 72.5624H31.4219L41.1905 62.832ZM41.5372 62.832H41.1905L31.8087 72.5624L41.5372 62.832Z" fill="#BABABA"/>
<path d="M30.7656 68.4316L31.4225 72.5624H30.7656V68.4316ZM31.4225 68.4316H30.7656L31.4225 72.5624V68.4316Z" fill="#BABABA"/>
<path d="M41.5392 71.4434L42.196 72.757H40.2656L41.5392 71.4434ZM42.196 71.4434H41.5392L42.196 72.757V71.4434Z" fill="#BABABA"/>
<path d="M41.1945 67.3105L36.1368 72.755H35.75L41.1945 67.3105ZM41.5411 67.3105H41.1945L36.1368 72.755L41.5411 67.3105Z" fill="#BABABA"/>
<path d="M30.7656 72.5605L31.6159 72.7539H30.7656V72.5605ZM31.8074 72.5605H30.7656L31.6159 72.7539L31.8074 72.5605Z" fill="#BABABA"/>
<path d="M30.7656 72.7539L42.1946 73.4107H30.7656V72.7539ZM42.1946 72.7539H30.7656L42.1946 73.4107V72.7539Z" fill="#BABABA"/>
<path d="M41.5342 5.8418V6.22678H41.1875L41.5342 5.8418Z" fill="#BABABA"/>
<path d="M31.3828 7.00246H31.7696L31.3828 7.38926V7.00246ZM35.322 3.10156L31.3828 7.00063H31.7696L35.322 3.10156Z" fill="#BABABA"/>
<path d="M35.3258 3.10156H35.6725L31.7734 7.00246L35.3258 3.10156Z" fill="#BABABA"/>
<path d="M41.5342 10.3613V10.7463H41.1875L41.5342 10.3613Z" fill="#BABABA"/>
<path d="M31.3828 11.5182H31.7696L31.3828 11.8649V11.5182ZM39.8396 3.10156L31.3846 11.5182H31.7714L39.8396 3.10156Z" fill="#BABABA"/>
<path d="M39.8434 3.10156H40.1901L31.7734 11.5182L39.8434 3.10156Z" fill="#BABABA"/>
<path d="M41.5342 14.877V15.2236H41.1875L41.5342 14.877Z" fill="#BABABA"/>
<path d="M31.3828 16.0335H31.7696L31.3828 16.3802V16.0335ZM41.1916 6.22656L31.3846 16.0335H31.7714L41.1916 6.22656Z" fill="#BABABA"/>
<path d="M41.1954 6.22656H41.5421L31.7734 16.0335L41.1954 6.22656Z" fill="#BABABA"/>
<path d="M41.5342 19.3945V19.743H41.1875L41.5342 19.3945Z" fill="#BABABA"/>
<path d="M31.3828 20.5147H31.7696L31.3828 20.9016V20.5147ZM41.1916 10.7461L31.3846 20.5147H31.7714L41.1916 10.7461Z" fill="#BABABA"/>
<path d="M41.1954 10.7461H41.5421L31.7734 20.5147L41.1954 10.7461Z" fill="#BABABA"/>
<path d="M41.5342 23.873V24.2599H41.1875L41.5342 23.873Z" fill="#BABABA"/>
<path d="M31.3828 25.0316H31.7696L31.3828 25.3782V25.0316ZM41.1916 15.2246L31.3846 25.0316H31.7714L41.1916 15.2246Z" fill="#BABABA"/>
<path d="M41.1954 15.2246H41.5421L31.7734 25.0316L41.1954 15.2246Z" fill="#BABABA"/>
<path d="M41.5342 28.3906V28.7391H41.1875L41.5342 28.3906Z" fill="#BABABA"/>
<path d="M31.3828 29.5492H31.7696L31.3828 29.8958V29.5492ZM41.1916 19.7422L31.3846 29.5492H31.7714L41.1916 19.7422Z" fill="#BABABA"/>
<path d="M41.1954 19.7422H41.5421L31.7734 29.5492L41.1954 19.7422Z" fill="#BABABA"/>
<path d="M31.3828 34.0284H31.7696L31.3828 34.4152V34.0284ZM41.1916 24.2598L31.3846 34.0284H31.7714L41.1916 24.2598Z" fill="#BABABA"/>
<path d="M41.1954 24.2598H41.5421L31.7734 34.0284L41.1954 24.2598Z" fill="#BABABA"/>
<path d="M41.1898 28.7383L31.7696 38.5453H31.3828L41.1898 28.7383ZM41.5364 28.7383H41.1898L31.7696 38.5453L41.5364 28.7383Z" fill="#BABABA"/>
<path d="M31.3828 38.5469L31.5762 38.7403H31.3828V38.5469ZM31.7696 38.5469H31.3828L31.5762 38.7403L31.7696 38.5469Z" fill="#BABABA"/>
<path d="M30.7266 2.44336L42.1939 3.1002H30.7266V2.44336ZM42.1939 2.44336H30.7266L42.1939 3.1002V2.44336Z" fill="#BABABA"/>
<path d="M41.5391 3.10156L42.1959 33.6811H41.5391V3.10156ZM42.1959 3.10156H41.5391L42.1959 33.6811V3.10156Z" fill="#BABABA"/>
<path d="M41.5349 33.6797L42.1917 33.9497H41.2266L41.5349 33.6797ZM42.1917 33.6797H41.5349L42.1917 33.9497V33.6797Z" fill="#BABABA"/>
<path d="M41.228 33.9492L37.0589 38.7368H36.0938L41.228 33.9492ZM42.1932 33.9492H41.228L37.0589 38.7368L42.1932 33.9492Z" fill="#BABABA"/>
<path d="M30.7284 3.10156L31.3852 38.7387H30.7284V3.10156ZM31.3834 3.10156H30.7266L31.3834 38.7387V3.10156Z" fill="#BABABA"/>
<path d="M30.7284 38.7402L36.3261 39.3971H30.7284V38.7402ZM37.0596 38.7402H30.7266L36.3243 39.3971L37.0596 38.7402Z" fill="#BABABA"/>
<path d="M48.5643 2.44336L62.8889 2.79002H48.5643V2.44336ZM60.3783 2.44336H48.5625L62.8871 2.79002L60.3783 2.44336Z" fill="#BABABA"/>
<path d="M48.5625 2.79102L64.6624 3.09936H48.5625V2.79102ZM62.8871 2.79102H48.5625L64.6624 3.09936L62.8871 2.79102Z" fill="#BABABA"/>
<path d="M60.3039 3.10156L64.8215 3.13988H60.2656L60.3039 3.10156ZM64.6664 3.10156H60.3039L64.8215 3.13988L64.6664 3.10156Z" fill="#BABABA"/>
<path d="M60.6094 3.13867L65.3587 3.25362H61.4596L60.6094 3.13867ZM64.8186 3.13867H60.6094L65.3587 3.25362L64.8186 3.13867Z" fill="#BABABA"/>
<path d="M60.2652 3.13867L60.5352 3.25362H60.1484L60.2652 3.13867ZM60.6119 3.13867H60.2652L60.5352 3.25362L60.6119 3.13867Z" fill="#BABABA"/>
<path d="M61.4609 3.25586L65.8618 3.37081H62.4261L61.4609 3.25586ZM65.36 3.25586H61.4609L65.8618 3.37081L65.36 3.25586Z" fill="#BABABA"/>
<path d="M62.4297 3.37109L67.1024 3.67944H64.2433L62.4297 3.37109ZM65.8653 3.37109H62.4297L67.1024 3.67944L65.8653 3.37109Z" fill="#BABABA"/>
<path d="M64.2407 3.68164L67.368 3.71996H64.1641L64.2407 3.68164ZM67.0979 3.68164H64.2407L67.368 3.71996L67.0979 3.68164Z" fill="#BABABA"/>
<path d="M64.5547 3.71875L67.8371 3.8337H65.0564L64.5547 3.71875ZM67.3718 3.71875H64.5547L67.8371 3.8337L67.3718 3.71875Z" fill="#BABABA"/>
<path d="M65.0565 3.83398L68.6472 4.10402H66.2151L65.0565 3.83398ZM67.8353 3.83398H65.0547L68.6454 4.10402L67.8353 3.83398Z" fill="#BABABA"/>
<path d="M66.2031 4.10547L70.0639 4.53059H67.8635L66.2031 4.10547ZM68.6371 4.10547H66.2049L70.0657 4.53059L68.6371 4.10547Z" fill="#BABABA"/>
<path d="M67.8657 4.5293L70.2212 4.60593H67.7891L67.8657 4.5293ZM70.0679 4.5293H67.8675L70.223 4.60593L70.0679 4.5293Z" fill="#BABABA"/>
<path d="M68.1406 4.60547L71.6164 5.10722H69.7243L68.1406 4.60547ZM70.3027 4.60547H68.1406L71.6164 5.10722L70.3027 4.60547Z" fill="#BABABA"/>
<path d="M69.7266 5.10938L72.6221 5.45604H70.7684L69.7266 5.10938ZM71.6186 5.10938H69.7266L72.6221 5.45604L71.6186 5.10938Z" fill="#BABABA"/>
<path d="M70.7675 5.45703L73.0062 5.65043H71.2692L70.7675 5.45703ZM72.6194 5.45703H70.7656L73.0044 5.65043L72.6194 5.45703Z" fill="#BABABA"/>
<path d="M71.273 5.64844L73.2417 5.72507H71.1562L71.273 5.64844ZM73.01 5.64844H71.273L73.2417 5.72507L73.01 5.64844Z" fill="#BABABA"/>
<path d="M71.5391 5.72656L74.5897 6.34509H73.006L71.5391 5.72656ZM73.2377 5.72656H71.5391L74.5897 6.34509L73.2377 5.72656Z" fill="#BABABA"/>
<path d="M73.0078 6.3457L74.9382 6.50079H73.3545L73.0078 6.3457ZM74.5915 6.3457H73.0078L74.9382 6.50079L74.5915 6.3457Z" fill="#BABABA"/>
<path d="M73.3516 6.49805L75.8621 6.96148H74.4335L73.3516 6.49805ZM74.9353 6.49805H73.3516L75.8621 6.96148L74.9353 6.49805Z" fill="#BABABA"/>
<path d="M74.4353 6.96094L76.0956 7.07588H74.3203L74.4353 6.96094ZM75.8639 6.96094H74.4353L76.0956 7.07588L75.8639 6.96094Z" fill="#BABABA"/>
<path d="M74.6641 7.07812L77.1746 7.65651H75.7843L74.6641 7.07812ZM76.0927 7.07812H74.6641L77.1746 7.65651L76.0927 7.07812Z" fill="#BABABA"/>
<path d="M75.7831 7.65625L77.4051 7.7712H76.0531L75.7831 7.65625ZM77.1716 7.65625H75.7812L77.4033 7.7712L77.1716 7.65625Z" fill="#BABABA"/>
<path d="M76.0565 7.77344L78.682 8.50691H77.4085L76.0565 7.77344ZM77.4067 7.77344H76.0547L78.6802 8.50691L77.4067 7.77344Z" fill="#BABABA"/>
<path d="M77.4058 8.50781L78.8728 8.6629H77.2891L77.4058 8.50781ZM78.6812 8.50781H77.4077L78.8746 8.6629L78.6812 8.50781Z" fill="#BABABA"/>
<path d="M77.6406 8.6582L79.3776 8.92824H78.1041L77.6406 8.6582ZM78.8777 8.6582H77.6425L79.3794 8.92824L78.8777 8.6582Z" fill="#BABABA"/>
<path d="M78.1016 8.93164L80.1086 9.43339H78.9117L78.1016 8.93164ZM79.3769 8.93164H78.1034L80.1104 9.43339L79.3769 8.93164Z" fill="#BABABA"/>
<path d="M55.7906 3.10156L49.5743 9.6663H49.1875L55.7906 3.10156ZM56.1372 3.10156H55.7906L49.5743 9.6663L56.1372 3.10156Z" fill="#BABABA"/>
<path d="M48.5643 3.10156L49.1828 9.6663H48.5643V3.10156ZM49.181 3.10156H48.5625L49.181 9.6663V3.10156Z" fill="#BABABA"/>
<path d="M48.5625 9.66406L49.181 10.0509H48.5625V9.66406ZM49.566 9.66406H48.5625L49.181 10.0509L49.566 9.66406Z" fill="#BABABA"/>
<path d="M78.9141 9.43359L81.3462 10.2437H80.1876L78.9141 9.43359ZM80.111 9.43359H78.9141L81.3462 10.2437L80.111 9.43359Z" fill="#BABABA"/>
<path d="M80.1878 10.2422L81.4614 10.3188H80.1094L80.1878 10.2422ZM81.3464 10.2422H80.1878L81.4614 10.3188L81.3464 10.2422Z" fill="#BABABA"/>
<path d="M80.1079 10.3203L81.5365 10.3969H80.0312L80.1079 10.3203ZM81.4581 10.3203H80.1061L81.5347 10.3969L81.4581 10.3203Z" fill="#BABABA"/>
<path d="M80.4141 10.3984L82.6929 11.2487H81.611L80.4141 10.3984ZM81.5343 10.3984H80.4141L82.6929 11.2487L81.5343 10.3984Z" fill="#BABABA"/>
<path d="M81.6172 11.2461L83.5093 11.8245H82.4273L81.6172 11.2461ZM82.6992 11.2461H81.6172L83.5093 11.8245L82.6992 11.2461Z" fill="#BABABA"/>
<path d="M82.4297 11.8262L83.82 12.1345H82.8165L82.4297 11.8262ZM83.5117 11.8262H82.4297L83.82 12.1345L83.5117 11.8262Z" fill="#BABABA"/>
<path d="M82.8106 12.1367L84.0075 12.2918H82.6172L82.8106 12.1367ZM83.8141 12.1367H82.8106L84.0075 12.2918L83.8141 12.1367Z" fill="#BABABA"/>
<path d="M83.0078 12.2891L85.1316 13.2159H84.1281L83.0078 12.2891ZM84.0113 12.2891H83.0078L85.1316 13.2159L84.0113 12.2891Z" fill="#BABABA"/>
<path d="M84.125 13.2168L85.4387 13.4868H84.4352L84.125 13.2168ZM85.1285 13.2168H84.125L85.4387 13.4868L85.1285 13.2168Z" fill="#BABABA"/>
<path d="M60.1531 3.25586L49.5743 14.1831H49.1875L60.1531 3.25586ZM60.5399 3.25586H60.1531L49.5743 14.1831L60.5399 3.25586Z" fill="#BABABA"/>
<path d="M48.5643 10.0488L49.1828 14.1796H48.5643V10.0488ZM49.181 10.0488H48.5625L49.181 14.1796V10.0488Z" fill="#BABABA"/>
<path d="M84.4297 13.4863L86.1667 14.1815H85.2398L84.4297 13.4863ZM85.4332 13.4863H84.4297L86.1667 14.1815L85.4332 13.4863Z" fill="#BABABA"/>
<path d="M85.2481 14.1836L86.3684 14.377H85.0547L85.2481 14.1836ZM86.175 14.1836H85.2481L86.3684 14.377L86.175 14.1836Z" fill="#BABABA"/>
<path d="M48.5625 14.1836L49.181 14.5704H48.5625V14.1836ZM49.566 14.1836H48.5625L49.181 14.5704L49.566 14.1836Z" fill="#BABABA"/>
<path d="M85.4375 14.375L87.2529 15.2252H86.3261L85.4375 14.375ZM86.3644 14.375H85.4375L87.2529 15.2252L86.3644 14.375Z" fill="#BABABA"/>
<path d="M86.3281 15.2246L87.4101 15.3797H86.4832L86.3281 15.2246ZM87.255 15.2246H86.3281L87.4101 15.3797L87.255 15.2246Z" fill="#BABABA"/>
<path d="M86.4766 15.3809L88.3686 16.4227H87.5184L86.4766 15.3809ZM87.4034 15.3809H86.4766L88.3686 16.4227L87.4034 15.3809Z" fill="#BABABA"/>
<path d="M87.5215 16.4219L88.5634 16.6153H87.3281L87.5215 16.4219ZM88.3699 16.4219H87.5197L88.5615 16.6153L88.3699 16.4219Z" fill="#BABABA"/>
<path d="M87.6797 16.6152L88.9934 17.0787H88.1048L87.6797 16.6152ZM88.5682 16.6152H87.6797L88.9934 17.0787L88.5682 16.6152Z" fill="#BABABA"/>
<path d="M88.1016 17.0781L89.5302 17.6966H88.6799L88.1016 17.0781ZM88.9901 17.0781H88.1016L89.5302 17.6966L88.9901 17.0781Z" fill="#BABABA"/>
<path d="M64.1689 3.71875L49.5743 18.7002H49.1875L64.1689 3.71875ZM64.5557 3.71875H64.1689L49.5743 18.7002L64.5557 3.71875Z" fill="#BABABA"/>
<path d="M48.5643 14.5684L49.1828 18.6991H48.5643V14.5684ZM49.181 14.5684H48.5625L49.181 18.6991V14.5684Z" fill="#BABABA"/>
<path d="M88.6815 17.6953L90.4568 18.8156H89.6066L88.6815 17.6953ZM89.5299 17.6953H88.6797L90.455 18.8156L89.5299 17.6953Z" fill="#BABABA"/>
<path d="M89.6075 18.8164L90.611 19.0098H89.4141L89.6075 18.8164ZM90.4559 18.8164H89.6056L90.6091 19.0098L90.4559 18.8164Z" fill="#BABABA"/>
<path d="M48.5625 18.6992L49.181 19.0459H48.5625V18.6992ZM49.566 18.6992H48.5625L49.181 19.0459L49.566 18.6992Z" fill="#BABABA"/>
<path d="M89.8047 19.0098L91.465 20.2067H90.6932L89.8047 19.0098ZM90.6166 19.0098H89.8065L91.4669 20.2067L90.6166 19.0098Z" fill="#BABABA"/>
<path d="M90.6953 20.2051L92.1239 21.0553H91.3138L90.6953 20.2051ZM91.4671 20.2051H90.6953L92.1239 21.0553L91.4671 20.2051Z" fill="#BABABA"/>
<path d="M91.3047 21.0547L92.3465 21.4014H91.5747L91.3047 21.0547ZM92.1148 21.0547H91.3047L92.3465 21.4014L92.1148 21.0547Z" fill="#BABABA"/>
<path d="M91.5755 21.4023L92.464 21.5957H91.3438L91.5755 21.4023ZM92.3473 21.4023H91.5755L92.464 21.5957L92.3473 21.4023Z" fill="#BABABA"/>
<path d="M91.6953 21.5957L93.3173 22.8692H92.5455L91.6953 21.5957ZM92.4689 21.5957H91.6971L93.3192 22.8692L92.4689 21.5957Z" fill="#BABABA"/>
<path d="M92.5469 22.8691L93.5121 23.1775H92.7403L92.5469 22.8691ZM93.3187 22.8691H92.5469L93.5121 23.1775L93.3187 22.8691Z" fill="#BABABA"/>
<path d="M67.7979 4.60547L49.5743 23.2159H49.1875L67.7979 4.60547ZM68.1464 4.60547H67.7998L49.5761 23.2159L68.1464 4.60547Z" fill="#BABABA"/>
<path d="M48.5643 19.0469L49.1828 23.216H48.5643V19.0469ZM49.181 19.0469H48.5625L49.181 23.216V19.0469Z" fill="#BABABA"/>
<path d="M48.5625 23.2168L49.181 23.5635H48.5625V23.2168ZM49.566 23.2168H48.5625L49.181 23.5635L49.566 23.2168Z" fill="#BABABA"/>
<path d="M92.7344 23.1777L94.048 24.1429H93.3146L92.7344 23.1777ZM93.5062 23.1777H92.7344L94.048 24.1429L93.5062 23.1777Z" fill="#BABABA"/>
<path d="M93.3098 24.1445L94.1984 24.3763H93.0781L93.3098 24.1445ZM94.0433 24.1445H93.3098L94.1984 24.3763L94.0433 24.1445Z" fill="#BABABA"/>
<path d="M93.4688 24.375L94.7423 25.3402H94.0088L93.4688 24.375ZM94.2022 24.375H93.4688L94.7423 25.3402L94.2022 24.375Z" fill="#BABABA"/>
<path d="M94.0078 25.3398L94.9347 25.6865H94.2012L94.0078 25.3398ZM94.7413 25.3398H94.0078L94.9347 25.6865L94.7413 25.3398Z" fill="#BABABA"/>
<path d="M94.2031 25.6875L95.6318 27.0395H94.8983L94.2031 25.6875ZM94.9366 25.6875H94.2031L95.6318 27.0395L94.9366 25.6875Z" fill="#BABABA"/>
<path d="M94.8958 27.041L95.746 27.311H94.6641L94.8958 27.041ZM95.6293 27.041H94.8958L95.746 27.311L95.6293 27.041Z" fill="#BABABA"/>
<path d="M95.0156 27.3105L95.9042 27.6189H95.1707L95.0156 27.3105ZM95.7491 27.3105H95.0156L95.9042 27.6189L95.7491 27.3105Z" fill="#BABABA"/>
<path d="M71.1569 5.72656L49.5743 27.696H49.1875L71.1569 5.72656ZM71.5437 5.72656H71.1569L49.5743 27.696L71.5437 5.72656Z" fill="#BABABA"/>
<path d="M48.5643 23.5664L49.1828 27.6972H48.5643V23.5664ZM49.181 23.5664H48.5625L49.181 27.6972V23.5664Z" fill="#BABABA"/>
<path d="M48.5625 27.6953L49.181 28.0821H48.5625V27.6953ZM49.566 27.6953H48.5625L49.181 28.0821L49.566 27.6953Z" fill="#BABABA"/>
<path d="M95.1719 27.6191L96.3688 28.7394H95.6736L95.1719 27.6191ZM95.9053 27.6191H95.1719L96.3688 28.7394L95.9053 27.6191Z" fill="#BABABA"/>
<path d="M95.6719 28.7383L96.9071 29.9352H96.1736L95.6719 28.7383ZM96.367 28.7383H95.6719L96.9071 29.9352L96.367 28.7383Z" fill="#BABABA"/>
<path d="M96.1719 29.9355L96.982 30.1673H96.2868L96.1719 29.9355ZM96.9053 29.9355H96.1719L96.982 30.1673L96.9053 29.9355Z" fill="#BABABA"/>
<path d="M96.2857 30.168L97.0574 30.438H96.0156L96.2857 30.168ZM96.979 30.168H96.2838L97.0556 30.438L96.979 30.168Z" fill="#BABABA"/>
<path d="M96.4062 30.4375L97.6415 31.9811H96.9463L96.4062 30.4375ZM97.0631 30.4375H96.4062L97.6415 31.9811L97.0631 30.4375Z" fill="#BABABA"/>
<path d="M74.3225 7.07812L49.5743 32.2132H49.1875L74.3225 7.07812ZM74.671 7.07812H74.3244L49.5743 32.2132L74.671 7.07812Z" fill="#BABABA"/>
<path d="M48.5643 28.082L49.1828 32.2128H48.5643V28.082ZM49.181 28.082H48.5625L49.181 32.2128V28.082Z" fill="#BABABA"/>
<path d="M96.9453 31.9805L97.7554 32.3271H97.0602L96.9453 31.9805ZM97.6405 31.9805H96.9453L97.7554 32.3271L97.6405 31.9805Z" fill="#BABABA"/>
<path d="M48.5625 32.2148L49.181 32.5615H48.5625V32.2148ZM49.566 32.2148H48.5625L49.181 32.5615L49.566 32.2148Z" fill="#BABABA"/>
<path d="M97.0547 32.3301L98.0965 33.527H97.4397L97.0547 32.3301ZM97.7498 32.3301H97.0547L98.0965 33.527L97.7498 32.3301Z" fill="#BABABA"/>
<path d="M97.4419 33.5273L98.2137 33.7974H97.1719L97.4419 33.5273ZM98.0988 33.5273H97.4419L98.2137 33.7974L98.0988 33.5273Z" fill="#BABABA"/>
<path d="M48.5643 32.5605L49.1828 33.8341H48.5643V32.5605ZM49.181 32.5605H48.5625L49.181 33.8341V32.5605Z" fill="#BABABA"/>
<path d="M48.5643 33.8359L49.4529 34.0677H48.5643V33.8359ZM49.181 33.8359H48.5625L49.4511 34.0677L49.181 33.8359Z" fill="#BABABA"/>
<path d="M97.5625 33.7988L98.4894 34.7257H97.7942L97.5625 33.7988ZM98.2193 33.7988H97.5625L98.4894 34.7257L98.2193 33.7988Z" fill="#BABABA"/>
<path d="M77.2898 8.6582L50.9962 35.3003H50.6094L77.2898 8.6582ZM77.6365 8.6582H77.2898L50.9962 35.3003L77.6365 8.6582Z" fill="#BABABA"/>
<path d="M48.5643 34.0664L50.6115 35.3016H49.7229L48.5643 34.0664ZM49.4511 34.0664H48.5625L50.6096 35.3016L49.4511 34.0664Z" fill="#BABABA"/>
<path d="M97.7969 34.7227L98.6471 35.4178H97.9903L97.7969 34.7227ZM98.492 34.7227H97.7969L98.6471 35.4178L98.492 34.7227Z" fill="#BABABA"/>
<path d="M49.7266 35.3027L50.8085 35.4578H49.92L49.7266 35.3027ZM51.0019 35.3027H49.7284L50.8103 35.4578L51.0019 35.3027Z" fill="#BABABA"/>
<path d="M97.9862 35.4199L99.0682 37.0803H98.373L97.9862 35.4199ZM98.6412 35.4199H97.9844L99.0663 37.0803L98.6412 35.4199Z" fill="#BABABA"/>
<path d="M98.3735 37.0801L99.0687 37.195H98.2969L98.3735 37.0801ZM99.0687 37.0801H98.3735L99.0687 37.195V37.0801Z" fill="#BABABA"/>
<path d="M98.295 37.1934L99.1051 37.3868H98.1016L98.295 37.1934ZM99.0667 37.1934H98.295L99.1051 37.3868L99.0667 37.1934Z" fill="#BABABA"/>
<path d="M98.4471 37.3867L99.1423 37.5801H98.4854L98.4471 37.3867ZM99.1021 37.3867H98.4453L99.1405 37.5801L99.1021 37.3867Z" fill="#BABABA"/>
<path d="M98.0978 37.3867L98.2529 37.5801H97.9062L98.0978 37.3867ZM98.4463 37.3867H98.0997L98.2547 37.5801L98.4463 37.3867Z" fill="#BABABA"/>
<path d="M80.0319 10.3984L53.1982 37.5806H52.8516L80.0319 10.3984ZM80.4187 10.3984H80.0319L53.1982 37.5806L80.4187 10.3984Z" fill="#BABABA"/>
<path d="M49.9141 35.457L52.8479 37.5808H51.9211L49.9141 35.457ZM50.8026 35.457H49.9141L52.8479 37.5808L50.8026 35.457Z" fill="#BABABA"/>
<path d="M51.9219 37.5801L53.0421 37.7735H52.1153L51.9219 37.5801ZM53.1954 37.5801H51.9219L53.0421 37.7735L53.1954 37.5801Z" fill="#BABABA"/>
<path d="M98.4922 37.5801L99.4191 39.047H98.7622L98.4922 37.5801ZM99.149 37.5801H98.4922L99.4191 39.047L99.149 37.5801Z" fill="#BABABA"/>
<path d="M97.9141 37.5801L96.8321 39.047H96.4453L97.9141 37.5801ZM98.2626 37.5801H97.9159L96.8339 39.047L98.2626 37.5801Z" fill="#BABABA"/>
<path d="M97.1807 33.7988L92.3165 39.0499H91.9297L97.1807 33.7988ZM97.5675 33.7988H97.1807L92.3165 39.0499L97.5675 33.7988Z" fill="#BABABA"/>
<path d="M96.0152 30.4375L87.792 39.0476H87.4453L96.0152 30.4375ZM96.402 30.4375H96.0152L87.792 39.0476L96.402 30.4375Z" fill="#BABABA"/>
<path d="M94.667 27.3105L83.2764 39.0479H82.9297L94.667 27.3105ZM95.0137 27.3105H94.667L83.2764 39.0479L95.0137 27.3105Z" fill="#BABABA"/>
<path d="M93.0793 24.375L78.7931 39.0481H78.4062L93.0793 24.375ZM93.4661 24.375H93.0793L78.7931 39.0481L93.4661 24.375Z" fill="#BABABA"/>
<path d="M91.3432 21.5957L74.2764 39.0475H73.9297L91.3432 21.5957ZM91.6899 21.5957H91.3432L74.2764 39.0475L91.6899 21.5957Z" fill="#BABABA"/>
<path d="M89.4148 19.0098L69.7607 39.0488H69.4141L89.4148 19.0098ZM89.7998 19.0098H89.413L69.7607 39.0488L89.7998 19.0098Z" fill="#BABABA"/>
<path d="M87.3313 16.6152L65.2852 39.0481H64.8984L87.3313 16.6152ZM87.678 16.6152H87.3313L65.2852 39.0481L87.678 16.6152Z" fill="#BABABA"/>
<path d="M85.0466 14.375L60.7618 39.0484H60.375L85.0466 14.375ZM85.4334 14.375H85.0466L60.7618 39.0484L85.4334 14.375Z" fill="#BABABA"/>
<path d="M82.6154 12.2891L56.2451 39.0461H55.8984L82.6154 12.2891ZM83.0022 12.2891H82.6154L56.2451 39.0461L83.0022 12.2891Z" fill="#BABABA"/>
<path d="M52.1172 37.7734L54.2793 39.047H53.3524L52.1172 37.7734ZM53.0441 37.7734H52.1172L54.2793 39.047L53.0441 37.7734Z" fill="#BABABA"/>
<path d="M53.3516 39.0488L99.531 39.7057H54.0084L53.3516 39.0488ZM99.4142 39.0488H53.3516L99.531 39.7057L99.4142 39.0488Z" fill="#BABABA"/>
<path d="M44.1641 2.44336L46.9447 3.1002H44.1641V2.44336ZM46.9447 2.44336H44.1641L46.9447 3.1002V2.44336Z" fill="#BABABA"/>
<path d="M46.2891 3.10156L46.9459 34.7247H46.2891V3.10156ZM46.9459 3.10156H46.2891L46.9459 34.7247V3.10156Z" fill="#BABABA"/>
<path d="M44.1641 3.10156L44.8209 34.7247H44.1641V3.10156ZM44.8209 3.10156H44.1641L44.8209 34.7247V3.10156Z" fill="#BABABA"/>
<path d="M46.2891 34.7227L47.1776 34.9927H46.2891V34.7227ZM46.9459 34.7227H46.2891L47.1776 34.9927L46.9459 34.7227Z" fill="#BABABA"/>
<path d="M44.1685 34.7227L44.8253 35.031H43.8984L44.1685 34.7227ZM44.8253 34.7227H44.1685L44.8253 35.031V34.7227Z" fill="#BABABA"/>
<path d="M46.2891 34.9922L53.3154 41.3252H52.3885L46.2891 34.9922ZM47.1776 34.9922H46.2891L53.3154 41.3252L47.1776 34.9922Z" fill="#BABABA"/>
<path d="M43.8933 35.0332L38.3722 41.3261H37.4453L43.8933 35.0332ZM44.8202 35.0332H43.8933L38.3722 41.3261L44.8202 35.0332Z" fill="#BABABA"/>
<path d="M52.3906 41.3242L99.5352 41.9427H53.0456L52.3906 41.3242ZM99.5334 41.3242H52.3906L99.5352 41.9427V41.3242H99.5334Z" fill="#BABABA"/>
<path d="M30.6484 41.3242L37.6748 41.9427H30.6484V41.3242ZM38.3718 41.3242H30.6503L37.6766 41.9427L38.3718 41.3242Z" fill="#BABABA"/>
<path d="M98.875 41.9434L99.5318 42.7151H98.875V41.9434ZM99.5318 41.9434H98.875L99.5318 42.7151V41.9434Z" fill="#BABABA"/>
<path d="M30.6484 41.9434L31.3053 42.7151H30.6484V41.9434ZM31.3053 41.9434H30.6484L31.3053 42.7151V41.9434Z" fill="#BABABA"/>
<path d="M53.1959 42.7148L99.5286 43.3717H52.5391L53.1959 42.7148ZM99.5286 42.7148H53.1959L99.5286 43.3717V42.7148Z" fill="#BABABA"/>
<path d="M30.6484 42.7148L38.2167 43.3717H30.6484V42.7148ZM37.5215 42.7148H30.6484L38.2167 43.3717L37.5215 42.7148Z" fill="#BABABA"/>
<path d="M37.2891 43.3711L44.4322 49.4724H43.5053L37.2891 43.3711ZM38.2159 43.3711H37.2891L44.4322 49.4724L38.2159 43.3711Z" fill="#BABABA"/>
<path d="M52.5407 43.3711L47.5597 49.4724H46.6328L52.5407 43.3711ZM53.4676 43.3711H52.5407L47.5597 49.4724L53.4676 43.3711Z" fill="#BABABA"/>
<path d="M46.6328 49.4746L47.2897 49.7446H46.6328V49.4746ZM47.5597 49.4746H46.6328L47.2897 49.7446L47.5597 49.4746Z" fill="#BABABA"/>
<path d="M43.5 49.4746L44.4269 49.7446H43.77L43.5 49.4746ZM44.4269 49.4746H43.5L44.4269 49.7446V49.4746Z" fill="#BABABA"/>
<path d="M46.6328 49.7441L47.2897 81.599H46.6328V49.7441ZM47.2897 49.7441H46.6328L47.2897 81.599V49.7441Z" fill="#BABABA"/>
<path d="M43.7734 49.7441L44.4303 81.599H43.7734V49.7441ZM44.4303 49.7441H43.7734L44.4303 81.599V49.7441Z" fill="#BABABA"/>
<path d="M43.7734 81.5957L47.2875 82.2525H43.7734V81.5957ZM47.2875 81.5957H43.7734L47.2875 82.2525V81.5957Z" fill="#BABABA"/>
<path d="M54.1568 44.9941L99.4094 45.651H53.5L54.1568 44.9941ZM99.5243 44.9941H54.1568L99.4094 45.651L99.5243 44.9941Z" fill="#BABABA"/>
<path d="M98.7547 45.6504L99.0631 47.5041H98.4062L98.7547 45.6504ZM99.4116 45.6504H98.7547L99.0631 47.5041L99.4116 45.6504Z" fill="#BABABA"/>
<path d="M98.4129 47.5039L98.9146 48.1607H98.2578L98.4129 47.5039ZM99.0697 47.5039H98.4129L98.9146 48.1607L99.0697 47.5039Z" fill="#BABABA"/>
<path d="M98.2603 48.1602L98.492 49.9354H97.7969L98.2603 48.1602ZM98.9172 48.1602H98.2603L98.492 49.9354L98.9172 48.1602Z" fill="#BABABA"/>
<path d="M53.5083 45.6504L49.8409 50.3997H48.9141L53.5083 45.6504ZM54.4352 45.6504H53.5083L49.8409 50.3997L54.4352 45.6504Z" fill="#BABABA"/>
<path d="M48.9141 50.3984L49.5709 50.6685H48.9141V50.3984ZM49.8409 50.3984H48.9141L49.5709 50.6685L49.8409 50.3984Z" fill="#BABABA"/>
<path d="M97.795 49.9375L98.2967 50.671H97.6016L97.795 49.9375ZM98.4901 49.9375H97.795L98.2967 50.671L98.4901 49.9375Z" fill="#BABABA"/>
<path d="M97.5948 50.6699L97.7498 52.3686H97.0547L97.5948 50.6699ZM98.2899 50.6699H97.5948L97.7498 52.3686L98.2899 50.6699Z" fill="#BABABA"/>
<path d="M97.0598 52.3691L97.485 53.1026H96.8281L97.0598 52.3691ZM97.755 52.3691H97.0598L97.485 53.1026L97.755 52.3691Z" fill="#BABABA"/>
<path d="M96.8287 53.1016L96.9053 54.7619H96.1719L96.8287 53.1016ZM97.4856 53.1016H96.8287L96.9053 54.7619L97.4856 53.1016Z" fill="#BABABA"/>
<path d="M96.1763 54.7637L96.5631 55.4971H95.9062L96.1763 54.7637ZM96.9098 54.7637H96.1763L96.5631 55.4971L96.9098 54.7637Z" fill="#BABABA"/>
<path d="M95.9053 55.4961V57.0798H95.1719L95.9053 55.4961ZM96.5622 55.4961H95.9053V57.0798L96.5622 55.4961Z" fill="#BABABA"/>
<path d="M95.1688 57.0781L95.5155 57.8116H94.8203L95.1688 57.0781ZM95.9023 57.0781H95.1688L95.5155 57.8116L95.9023 57.0781Z" fill="#BABABA"/>
<path d="M94.8179 57.8145L94.7413 59.358H94.0078L94.8179 57.8145ZM95.5131 57.8145H94.8179L94.7413 59.358L95.5131 57.8145Z" fill="#BABABA"/>
<path d="M94.0111 59.3574L94.3194 60.0909H93.5859L94.0111 59.3574ZM94.7445 59.3574H94.0111L94.3194 60.0909L94.7445 59.3574Z" fill="#BABABA"/>
<path d="M93.582 60.0898L93.5054 61.5185H92.6953L93.582 60.0898ZM94.3155 60.0898H93.582L93.5054 61.5185L94.3155 60.0898Z" fill="#BABABA"/>
<path d="M92.6978 61.5176L93.0062 62.2894H92.2344L92.6978 61.5176ZM93.5079 61.5176H92.6978L93.0062 62.2894L93.5079 61.5176Z" fill="#BABABA"/>
<path d="M92.2297 62.291L92.1148 63.643H91.3047L92.2297 62.291ZM93.0015 62.291H92.2297L92.1148 63.643L93.0015 62.291Z" fill="#BABABA"/>
<path d="M91.3057 63.6426L91.5757 64.376H90.7656L91.3057 63.6426ZM92.1158 63.6426H91.3057L91.5757 64.376L92.1158 63.6426Z" fill="#BABABA"/>
<path d="M90.7631 64.377L90.6081 65.6906H89.7578L90.7631 64.377ZM91.5751 64.377H90.765L90.6099 65.6906L91.5751 64.377Z" fill="#BABABA"/>
<path d="M89.7581 65.6895L89.9898 66.4229H89.1797L89.7581 65.6895ZM90.6083 65.6895H89.7581L89.9898 66.4229L90.6083 65.6895Z" fill="#BABABA"/>
<path d="M89.1835 66.4238L88.9901 67.6207H88.1016L89.1835 66.4238ZM89.9936 66.4238H89.1835L88.9901 67.6207L89.9936 66.4238Z" fill="#BABABA"/>
<path d="M88.1022 67.6211L88.3339 68.3162H87.4453L88.1022 67.6211ZM88.9907 67.6211H88.1022L88.3339 68.3162L88.9907 67.6211Z" fill="#BABABA"/>
<path d="M87.4477 68.3145L87.2543 69.473H86.2891L87.4477 68.3145ZM88.3344 68.3145H87.4458L87.2524 69.473L88.3344 68.3145Z" fill="#BABABA"/>
<path d="M86.2897 69.4727L86.5597 70.1295H85.6328L86.2897 69.4727ZM87.2548 69.4727H86.2897L86.5597 70.1295L87.2548 69.4727Z" fill="#BABABA"/>
<path d="M85.6258 70.1289L85.4324 71.2109H84.3906L85.6258 70.1289ZM86.5527 70.1289H85.6258L85.4324 71.2109L86.5527 70.1289Z" fill="#BABABA"/>
<path d="M84.3983 71.2109L84.7066 71.8295H83.7031L84.3983 71.2109ZM85.4401 71.2109H84.3983L84.7066 71.8295L85.4401 71.2109Z" fill="#BABABA"/>
<path d="M83.7051 71.8281L83.5117 72.8316H82.4297L83.7051 71.8281ZM84.7086 71.8281H83.7051L83.5117 72.8316L84.7086 71.8281Z" fill="#BABABA"/>
<path d="M82.4288 72.832L82.7371 73.4104H81.6953L82.4288 72.832ZM83.5107 72.832H82.4288L82.7371 73.4104L83.5107 72.832Z" fill="#BABABA"/>
<path d="M81.695 73.4121L81.4633 74.3773H80.3047L81.695 73.4121ZM82.7386 73.4121H81.6968L81.4651 74.3773L82.7386 73.4121Z" fill="#BABABA"/>
<path d="M80.3038 74.377L80.7289 74.8787H79.5703L80.3038 74.377ZM81.4606 74.377H80.302L80.7271 74.8787L81.4606 74.377Z" fill="#BABABA"/>
<path d="M79.5618 74.8789L79.3684 75.7675H78.0547L79.5618 74.8789ZM80.7204 74.8789H79.5618L79.3684 75.7675L80.7204 74.8789Z" fill="#BABABA"/>
<path d="M78.0623 75.7656L78.6407 76.1907H77.3672L78.0623 75.7656ZM79.376 75.7656H78.0623L78.6407 76.1907L79.376 75.7656Z" fill="#BABABA"/>
<path d="M77.3642 76.1914L77.1708 77.0416H75.7422L77.3642 76.1914ZM78.6396 76.1914H77.366L77.1726 77.0416L78.6396 76.1914Z" fill="#BABABA"/>
<path d="M75.7506 77.041L76.5224 77.3877H75.0938L75.7506 77.041ZM77.1792 77.041H75.7506L76.5224 77.3877L77.1792 77.041Z" fill="#BABABA"/>
<path d="M75.0896 77.3887L74.9345 78.1988H73.3125L75.0896 77.3887ZM76.5182 77.3887H75.0896L74.9345 78.1988L76.5182 77.3887Z" fill="#BABABA"/>
<path d="M73.3075 78.1992L74.3493 78.4693H72.7656L73.3075 78.1992ZM74.9295 78.1992H73.3075L74.3493 78.4693L74.9295 78.1992Z" fill="#BABABA"/>
<path d="M72.7745 78.4707L72.6194 79.2042H70.7656L72.7745 78.4707ZM74.3582 78.4707H72.7745L72.6194 79.2042L74.3582 78.4707Z" fill="#BABABA"/>
<path d="M70.7689 79.2012L72.1975 79.3563H70.3438L70.7689 79.2012ZM72.6208 79.2012H70.767L72.1957 79.3563L72.6208 79.2012Z" fill="#BABABA"/>
<path d="M70.3395 79.3574L70.2246 80.0909H68.0625L70.3395 79.3574ZM72.1933 79.3574H70.3395L70.2246 80.0909L72.1933 79.3574Z" fill="#BABABA"/>
<path d="M68.0613 80.0918L70.0683 80.1684H67.9062L68.0613 80.0918ZM70.2234 80.0918H68.0613L70.0683 80.1684L70.2234 80.0918Z" fill="#BABABA"/>
<path d="M67.9072 80.168L68.0623 80.7865H65.3984L67.9072 80.168ZM70.0693 80.168H67.9072L68.0623 80.7865L70.0693 80.168Z" fill="#BABABA"/>
<path d="M65.4032 80.7852L67.8353 80.8618H65.0547L65.4032 80.7852ZM68.067 80.7852H65.4032L67.8353 80.8618L68.067 80.7852Z" fill="#BABABA"/>
<path d="M65.0527 80.8633L66.173 81.2501H62.8906L65.0527 80.8633ZM67.8315 80.8633H65.0509L66.1712 81.2501L67.8315 80.8633Z" fill="#BABABA"/>
<path d="M62.8977 81.248L65.3681 81.4414H61.3906L62.8977 81.248ZM66.1782 81.248H62.8977L65.3681 81.4414L66.1782 81.248Z" fill="#BABABA"/>
<path d="M61.3856 81.4414L64.6679 81.5965H60.3438L61.3856 81.4414ZM65.3631 81.4414H61.3856L64.6679 81.5965L65.3631 81.4414Z" fill="#BABABA"/>
<path d="M48.9141 50.6699L49.5709 81.5979H48.9141V50.6699ZM49.5709 50.6699H48.9141L49.5709 81.5979V50.6699Z" fill="#BABABA"/>
<path d="M48.9141 81.5957L62.892 81.9041H48.9141V81.5957ZM64.6672 81.5957H48.9141L62.892 81.9041L64.6672 81.5957Z" fill="#BABABA"/>
<path d="M48.9141 81.9062L60.3814 82.2529H48.9141V81.9062ZM62.892 81.9062H48.9141L60.3814 82.2529L62.892 81.9062Z" fill="#BABABA"/>
<path d="M98.7603 45.7285L98.6837 46.192H98.2969L98.7603 45.7285Z" fill="#BABABA"/>
<path d="M97.2979 51.7129L97.1428 52.253H96.7578L97.2979 51.7129Z" fill="#BABABA"/>
<path d="M93.8573 59.6641L93.3556 60.5143H92.9688L93.8573 59.6641Z" fill="#BABABA"/>
<path d="M49.5703 67.8899H49.9571L49.5703 68.2365V67.8899ZM71.8098 45.6504L49.5703 67.8899H49.9571L71.8098 45.6504Z" fill="#BABABA"/>
<path d="M71.8076 45.6504H72.1543L49.9531 67.8899L71.8076 45.6504Z" fill="#BABABA"/>
<path d="M49.5703 72.4075H49.9571L49.5703 72.7541V72.4075ZM76.3274 45.6504L49.5703 72.4075H49.9571L76.3274 45.6504Z" fill="#BABABA"/>
<path d="M76.3252 45.6504H76.6719L49.9531 72.4075L76.3252 45.6504Z" fill="#BABABA"/>
<path d="M92.9684 60.5156L78.0654 75.8054H77.7188L92.9684 60.5156ZM93.3533 60.5156H92.9665L78.0636 75.8054L93.3533 60.5156Z" fill="#BABABA"/>
<path d="M77.2188 76.2681L77.7205 75.8047H78.0672L77.2188 76.2681Z" fill="#BABABA"/>
<path d="M49.5703 76.8849H49.9571L49.5703 77.2717V76.8849ZM80.8067 45.6504L49.5703 76.8867H49.9571L80.8067 45.6504Z" fill="#BABABA"/>
<path d="M80.8045 45.6504H81.1895L49.9531 76.8849L80.8045 45.6504Z" fill="#BABABA"/>
<path d="M69.4189 79.5509H69.8057L69.2656 79.7443L69.4189 79.5509ZM96.7562 52.252L69.4189 79.5509H69.8057L96.7562 52.252Z" fill="#BABABA"/>
<path d="M96.7552 52.252H97.1401L69.8047 79.5509L96.7552 52.252Z" fill="#BABABA"/>
<path d="M63.391 81.0951H63.7376L63.3125 81.1717L63.391 81.0951ZM98.2946 46.1914L63.391 81.0951H63.7376L98.2946 46.1914Z" fill="#BABABA"/>
<path d="M98.2992 46.1914H98.686L63.7422 81.0951L98.2992 46.1914Z" fill="#BABABA"/>
<path d="M85.3183 45.6504L49.9493 81.4025H49.5625L85.3183 45.6504ZM85.6649 45.6504H85.3183L49.9493 81.4025L85.6649 45.6504Z" fill="#BABABA"/>
<path d="M94.3213 45.6504L58.7607 81.5977H58.4141L94.3213 45.6504ZM94.7081 45.6504H94.3213L58.7607 81.5977L94.7081 45.6504Z" fill="#BABABA"/>
<path d="M89.8398 45.6504L54.2774 81.5959H53.8906L89.8398 45.6504ZM90.1864 45.6504H89.8398L54.2774 81.5959L90.1864 45.6504Z" fill="#BABABA"/>
<path d="M49.5643 81.4023L49.7577 81.5957H49.5643V81.4023ZM49.9493 81.4023H49.5625L49.7559 81.5957L49.9493 81.4023Z" fill="#BABABA"/>
<path d="M49.5643 54.3754H49.9511L49.5643 54.7221V54.3754ZM58.2893 45.6504L49.5625 54.3772H49.9493L58.2893 45.6504Z" fill="#BABABA"/>
<path d="M58.2932 45.6504H58.6416L49.9531 54.3754L58.2932 45.6504Z" fill="#BABABA"/>
<path d="M49.5703 58.893H49.9571L49.5703 59.2397V58.893ZM62.7746 45.6504L49.5703 58.8948H49.9571L62.7746 45.6504Z" fill="#BABABA"/>
<path d="M62.7724 45.6504H63.1592L49.9531 58.893L62.7724 45.6504Z" fill="#BABABA"/>
<path d="M49.5703 63.3723H49.9571L49.5703 63.7591V63.3723ZM67.2922 45.6504L49.5703 63.3723H49.9571L67.2922 45.6504Z" fill="#BABABA"/>
<path d="M67.29 45.6504H67.6768L49.9531 63.3723L67.29 45.6504Z" fill="#BABABA"/>
<path d="M87.3682 70.0666C87.4193 70.1523 87.4923 70.2089 87.5817 70.2509C87.6364 70.3421 87.7094 70.4114 87.8079 70.457C87.9247 70.6085 88.0579 70.7435 88.2093 70.8603C88.2513 70.9606 88.3243 71.0336 88.4137 71.0902C88.4264 71.1485 88.4611 71.1869 88.5158 71.2106C88.5231 71.2562 88.5487 71.2872 88.5925 71.3C88.6107 71.3584 88.6472 71.4022 88.7001 71.4314C88.7056 71.5007 88.7512 71.5408 88.8059 71.5737C88.8333 71.6594 88.8917 71.7233 88.9574 71.7835C88.9574 71.8309 88.9847 71.8601 89.0267 71.8784C89.034 71.8911 89.0413 71.9021 89.0468 71.9149C89.0486 71.9605 89.0742 71.9915 89.1125 72.0097C89.1198 72.0225 89.1271 72.0335 89.1344 72.0462C89.1745 72.1666 89.2347 72.2761 89.3314 72.3619C89.3259 72.3783 89.3314 72.3892 89.3478 72.3965C89.346 72.4495 89.377 72.4823 89.4153 72.5097C89.4245 72.5297 89.4336 72.5516 89.4427 72.5717C89.5339 72.776 89.6252 72.9786 89.7182 73.1829C89.9299 73.6445 90.0393 74.139 90.1871 74.6225C90.1926 74.6553 90.1962 74.6864 90.2017 74.7192C90.1871 74.8542 90.2254 74.9819 90.2674 75.1078C90.251 75.1553 90.2546 75.2009 90.2802 75.2447C90.2948 75.6369 90.3221 76.0311 90.3221 76.4233C90.324 82.8458 90.324 89.2663 90.324 95.6888C90.324 95.8055 90.324 95.9223 90.3185 96.0391C90.2711 96.9933 89.7803 97.6429 88.9136 97.8801C88.1163 98.099 87.3116 98.1045 86.5143 97.8855C85.9031 97.7177 85.4469 97.3619 85.2225 96.747C85.1021 96.4186 85.093 96.0774 85.093 95.7326C85.093 89.3174 85.093 82.9041 85.093 76.489C85.093 76.0201 85.062 75.5548 84.9288 75.1023C84.5803 73.9346 83.7793 73.1501 82.7521 72.5662C81.9219 72.0937 81.0151 71.8875 80.07 71.8765C78.3257 71.8583 76.5833 71.8729 74.839 71.8674C74.6675 71.8674 74.6146 71.9203 74.6164 72.0918C74.6219 72.995 74.6109 73.8981 74.6109 74.8031C74.6109 76.1515 74.6182 77.4998 74.6201 78.85C74.6219 84.4331 74.6201 90.0144 74.6201 95.5975C74.6201 95.8019 74.6182 96.0063 74.5963 96.2088C74.5161 96.9678 74.153 97.5371 73.4213 97.8053C72.5072 98.141 71.573 98.1319 70.6516 97.8399C70.0678 97.6556 69.6664 97.2579 69.4785 96.6631C69.3799 96.3529 69.369 96.0318 69.369 95.7107C69.369 90.0692 69.369 84.4295 69.369 78.7879C69.369 76.5693 69.3653 74.3525 69.3745 72.1338C69.3745 71.924 69.3197 71.8619 69.1063 71.8638C67.2981 71.8765 65.49 71.8802 63.6819 71.882C62.3682 71.882 61.0563 71.8729 59.7426 71.8692C59.5164 71.8692 59.2902 71.8711 59.0639 71.8674C58.9398 71.8656 58.9034 71.9222 58.9052 72.0426C58.9125 72.464 58.9107 72.8855 58.9107 73.307C58.9107 74.6188 58.9088 75.9289 58.907 77.2407C58.907 79.047 58.907 80.8533 58.907 82.6596C58.907 86.9948 58.9088 91.3299 58.9088 95.6632C58.9088 95.7873 58.907 95.9114 58.8997 96.0354C58.845 96.9714 58.418 97.5827 57.5824 97.8527C56.7869 98.1118 55.9713 98.1118 55.163 97.9093C54.3839 97.7159 53.8621 97.2451 53.7089 96.4259C53.676 96.2489 53.5775 96.2891 53.4717 96.3529C53.0101 96.6339 52.532 96.8802 52.0376 97.0992C50.1492 97.9348 48.1586 98.3417 46.1096 98.5059C46.0512 98.5114 45.9545 98.4584 45.9399 98.577C44.4803 98.577 43.0206 98.577 41.561 98.577C41.5263 98.4493 41.4187 98.5077 41.3475 98.5041C40.2765 98.4457 39.211 98.3289 38.1491 98.1702C36.7569 97.9622 35.3831 97.6629 34.0329 97.2542C32.3178 96.7342 30.6684 96.0628 29.1157 95.1651C27.7655 94.3842 27.2054 93.0906 27.6214 91.6383C28.0392 90.1768 29.6558 88.9981 31.4858 89.5966C32.1426 89.8119 32.7685 90.1148 33.4125 90.3666C34.3157 90.7169 35.2079 91.1073 36.1311 91.3883C37.359 91.7605 38.6235 91.9959 39.8952 92.1765C41.915 92.4648 43.9439 92.5907 45.9837 92.4228C47.0985 92.3316 48.1987 92.151 49.2424 91.7259C50.1765 91.3445 50.9775 90.7972 51.4847 89.894C51.8879 89.1751 51.981 88.3979 51.9427 87.5878C51.8661 85.9712 51.1381 84.7506 49.7277 83.9551C49.2788 83.7015 48.8045 83.4898 48.3374 83.2654C47.4379 82.8348 46.5365 82.4079 45.637 81.9809C45.6224 81.9718 45.606 81.9645 45.5914 81.9554C45.5787 81.9481 45.5659 81.9426 45.5531 81.9353C45.5203 81.9244 45.4893 81.9134 45.4564 81.9006L45.4491 81.897C45.3743 81.8313 45.294 81.7784 45.1918 81.7674C45.1663 81.7291 45.1298 81.7145 45.086 81.7145C44.7977 81.5503 44.5058 81.3916 44.1883 81.2894L44.1792 81.2748L44.1628 81.2766C44.1427 81.2657 44.1208 81.2547 44.1008 81.2438L44.0935 81.231L44.0789 81.2347C44.057 81.2256 44.0369 81.2146 44.015 81.2055C44.0114 81.1909 44.0022 81.1854 43.9876 81.1909C43.9676 81.1799 43.9475 81.169 43.9274 81.1599C43.922 81.1453 43.9128 81.1398 43.8982 81.1471C43.88 81.138 43.8599 81.1288 43.8417 81.1197C43.8362 81.1033 43.8271 81.0978 43.8107 81.1033C43.7924 81.0942 43.7723 81.0832 43.7541 81.0741C43.7468 81.0577 43.7359 81.054 43.7194 81.0613C43.7012 81.0522 43.6848 81.0431 43.6665 81.034C43.6629 81.0176 43.6519 81.0121 43.6373 81.0157C43.5552 80.9719 43.4749 80.9227 43.3892 80.8825C40.4827 79.4849 37.578 78.0873 34.6715 76.6915C34.1679 76.4489 33.6607 76.2153 33.1535 75.9781C33.1389 75.9489 33.117 75.9343 33.0841 75.9362C32.8871 75.7939 32.6791 75.6698 32.4528 75.5804C32.4382 75.5694 32.4218 75.5603 32.4072 75.5494C32.3908 75.5111 32.3652 75.491 32.3215 75.4983C32.2923 75.4472 32.243 75.4289 32.1901 75.4162C32.1773 75.3724 32.1463 75.3541 32.1025 75.3614C32.0879 75.3505 32.0733 75.3395 32.0587 75.3286C32.0441 75.2866 32.0149 75.2684 31.9711 75.272C31.9565 75.2611 31.9419 75.2501 31.9274 75.241C31.8598 75.1534 31.7723 75.0914 31.6646 75.0604C31.6482 75.0476 31.6318 75.0367 31.6154 75.0239C31.6044 74.9801 31.577 74.9619 31.5332 74.9673C31.5205 74.9564 31.5059 74.9454 31.4931 74.9345C31.4639 74.8798 31.4274 74.836 31.3581 74.8323C31.338 74.794 31.3107 74.7685 31.265 74.7612C31.2395 74.7064 31.2048 74.6626 31.1391 74.6608C31.1081 74.6024 31.0607 74.5641 30.9987 74.544C30.9749 74.4893 30.9421 74.4455 30.8764 74.4419C30.8308 74.3689 30.7724 74.3141 30.6921 74.2795C30.6465 74.1773 30.5443 74.1262 30.4768 74.0423C30.3929 73.9401 30.3236 73.9383 30.2816 74.0733C30.2652 74.1262 30.2104 74.1664 30.2269 74.232C30.194 74.2539 30.1794 74.2868 30.1776 74.3251C30.1046 74.3798 30.0517 74.4473 30.0353 74.5386C29.9751 74.5696 29.9422 74.6225 29.913 74.6809C29.8072 74.7466 29.7215 74.8323 29.6503 74.9308C29.6357 74.9436 29.6211 74.9546 29.6065 74.9673C29.269 75.1753 28.9004 75.3176 28.5264 75.4454C28.4917 75.449 28.4571 75.4545 28.4224 75.4581C28.2326 75.4472 28.0502 75.4819 27.8677 75.5293C27.8166 75.5238 27.7674 75.5147 27.7163 75.5147C22.5674 75.5147 17.4203 75.5147 12.2714 75.5165C12.1036 75.5165 11.9376 75.5256 11.7697 75.5293C11.4395 75.4892 11.111 75.4454 10.7771 75.4581C10.737 75.4381 10.6987 75.4344 10.6567 75.4508C10.2298 75.3779 9.80283 75.3067 9.37588 75.2337C9.34669 75.2082 9.31385 75.2045 9.27918 75.2137C9.20072 75.1717 9.12227 75.1297 9.02739 75.1498C8.99638 75.1261 8.96353 75.1206 8.92704 75.1315C8.88325 75.1078 8.84129 75.075 8.79567 75.0622C8.0695 74.8761 7.378 74.6043 6.70839 74.2685C6.44383 74.1353 6.18109 74.0003 5.91836 73.8671C5.90193 73.8562 5.88734 73.8452 5.87092 73.8343C5.85632 73.7941 5.82895 73.7759 5.78699 73.7868C5.75779 73.7339 5.70853 73.7139 5.65379 73.7029C5.64102 73.6591 5.61183 73.6409 5.56804 73.6464C5.55344 73.6354 5.53702 73.6263 5.52243 73.6153C5.50965 73.5716 5.48046 73.5551 5.43667 73.5606C5.42208 73.5497 5.40748 73.5387 5.39106 73.5278C5.32355 73.4384 5.23597 73.38 5.12832 73.3471C5.1119 73.3344 5.09548 73.3234 5.07906 73.3106C5.06994 73.2669 5.04257 73.2486 4.99696 73.2523C4.98236 73.2413 4.96959 73.2304 4.95499 73.2194C4.92762 73.1647 4.88566 73.1245 4.8218 73.1154C4.80173 73.0789 4.77436 73.0516 4.73057 73.0461C4.7032 72.9932 4.67036 72.9476 4.60285 72.9494C4.58278 72.9092 4.55541 72.88 4.50798 72.8709C4.46966 72.8016 4.42222 72.7432 4.34012 72.7286C4.32187 72.6885 4.29268 72.6611 4.24889 72.652C4.19598 72.568 4.13577 72.4932 4.03359 72.4659C3.9004 72.3071 3.75261 72.163 3.58658 72.0389C3.56651 71.9769 3.52454 71.9349 3.46251 71.9149C3.34209 71.747 3.1943 71.6047 3.03921 71.4678C3.02097 71.3857 2.9644 71.3365 2.89325 71.3018C2.86223 71.2234 2.80749 71.165 2.73816 71.1175C2.73816 71.0737 2.71079 71.0537 2.67248 71.0409C2.65241 70.977 2.61227 70.9296 2.55388 70.8986C2.55206 70.8329 2.51374 70.7946 2.45535 70.7727C2.44988 70.7271 2.42434 70.6979 2.38602 70.6796C2.38602 70.6358 2.36778 70.6085 2.32399 70.5994C2.31121 70.5829 2.29844 70.5647 2.28567 70.5483C2.29115 70.4789 2.24553 70.4479 2.19444 70.4187C2.1835 70.4041 2.17072 70.3895 2.15978 70.3731C2.16343 70.3147 2.11964 70.2819 2.09227 70.2399C1.30589 69.105 0.738451 67.8698 0.39361 66.5306C0.324277 66.2569 0.307856 65.9705 0.185611 65.7114C0.183787 65.6877 0.181962 65.6658 0.180138 65.642C0.200208 65.4924 0.16919 65.3519 0.10898 65.2169C0.130875 65.1512 0.118103 65.0892 0.0907346 65.029C0.118103 64.8082 0.0542434 64.5984 0.023226 64.3831C0.0378225 64.3503 0.0359981 64.3174 0.015928 64.2864C0.04877 64.2006 0.0268751 64.1131 0.0214014 64.0273C-0.0442824 62.8487 0.039647 61.6791 0.295084 60.526C0.621679 59.0518 1.22196 57.6906 2.04301 56.4262C3.09212 54.8097 4.4058 53.4668 6.10081 52.5217C7.94908 51.4908 9.95062 51.0675 12.0452 51.0621C16.0811 51.0511 20.1152 51.0584 24.1511 51.0584C24.2022 51.0584 24.2533 51.0566 24.3044 51.0584C24.4376 51.0675 24.4777 51.0073 24.4777 50.8741C24.4722 48.8525 24.4832 46.8309 24.4668 44.8111C24.4595 43.9372 24.3098 43.076 23.9066 42.2914C22.7608 40.0563 20.9399 38.8448 18.4111 38.8284C14.3989 38.8029 10.3849 38.8211 6.37084 38.8229C5.99134 38.8229 5.61183 38.812 5.2378 38.7427C4.21057 38.5529 3.4917 38.0074 3.20889 36.9674C3.00637 36.2193 3.00819 35.4639 3.17423 34.7141C3.32019 34.0554 3.66321 33.5153 4.26166 33.165C4.77254 32.8658 5.33815 32.7527 5.92018 32.7508C10.2261 32.7454 14.5302 32.749 18.8362 32.7527C19.1409 32.7527 19.4456 32.7819 19.7503 32.7983C19.8397 32.8348 19.9309 32.8402 20.024 32.822C20.1608 32.8804 20.305 32.8968 20.4509 32.884C20.5111 32.9132 20.5713 32.926 20.637 32.9077C20.6699 32.9534 20.71 32.9588 20.7574 32.9333C20.7976 32.9716 20.8432 32.9734 20.8943 32.9625C20.991 32.9972 21.0877 33.0409 21.1953 33.0245C21.2227 33.0501 21.2555 33.0555 21.2902 33.0446C21.3705 33.0847 21.4508 33.1212 21.5456 33.1085C21.5876 33.1413 21.6332 33.1486 21.6843 33.1358C21.7318 33.1796 21.7828 33.2143 21.8503 33.1887C21.8832 33.2125 21.9179 33.2216 21.9562 33.2033C21.9854 33.2435 22.02 33.2672 22.0711 33.2526C22.1167 33.2927 22.1696 33.2982 22.2262 33.2891C22.2901 33.3602 22.3722 33.3803 22.4652 33.3712C22.5145 33.4241 22.5747 33.4496 22.6477 33.4405C22.8082 33.539 22.9834 33.6029 23.1658 33.6449C23.2242 33.6923 23.2917 33.7179 23.3647 33.7288C23.4213 33.7762 23.4797 33.8237 23.56 33.8164C23.819 33.9477 24.0781 34.0773 24.3372 34.2087C24.3591 34.2451 24.3901 34.2707 24.4376 34.2689C24.5908 34.3765 24.7459 34.4842 24.9211 34.5553C24.9338 34.5991 24.9612 34.6192 25.0068 34.6119C25.6162 35.0443 26.2037 35.5077 26.7657 36.0004C26.8022 36.077 26.8551 36.1354 26.9372 36.1646C27.0084 36.2759 27.0978 36.3671 27.2091 36.4364C27.2255 36.5003 27.2674 36.5423 27.3295 36.5642C27.6707 36.9747 28.0119 37.387 28.3531 37.7976C28.3567 37.8413 28.3786 37.8724 28.4206 37.887C28.634 38.2227 28.8475 38.5566 29.061 38.8923C29.0719 38.9653 29.0975 39.0291 29.165 39.0693C29.2599 39.3119 29.3839 39.5418 29.5135 39.7681C29.497 39.8137 29.5208 39.841 29.5591 39.8575C29.6211 40.0855 29.7233 40.299 29.8236 40.5125C29.8072 40.5818 29.8455 40.6311 29.8857 40.6803C29.8766 40.7533 29.9057 40.8117 29.955 40.8628C29.9422 40.9559 29.9678 41.0361 30.0353 41.1018C30.0262 41.1602 30.0316 41.2131 30.0754 41.2569C30.0572 41.308 30.0827 41.3427 30.121 41.3718C30.1064 41.474 30.1283 41.5671 30.1849 41.6547C30.1867 41.8371 30.2688 42.0013 30.3035 42.1783C30.5078 43.211 30.59 44.2528 30.59 45.3038C30.5881 48.588 30.5845 51.8703 30.5827 55.1545C30.5808 56.4901 30.5827 57.8257 30.5827 59.1612C30.5827 59.2032 30.59 59.2452 30.5954 59.32C30.8436 59.1266 31.0643 58.9478 31.2942 58.7781C32.6608 57.7618 34.1752 57.0502 35.81 56.585C37.7623 56.0285 39.7583 55.8479 41.7818 55.8916C43.4476 55.9281 45.0951 56.1161 46.7208 56.4883C48.1075 56.8057 49.454 57.2455 50.7513 57.8293C51.7821 58.2928 52.7929 58.8018 53.7143 59.4586C54.5828 60.0753 55.059 60.9219 55.0298 62.0112C54.9714 64.3046 52.4353 65.7241 50.4612 64.5656C49.0344 63.7281 47.5364 63.0603 45.9454 62.6115C44.6791 62.2539 43.3837 62.0513 42.0682 61.9875C40.7764 61.9236 39.4883 61.9838 38.2111 62.1955C37.2934 62.3487 36.4066 62.595 35.5911 63.0621C34.4033 63.7427 33.73 64.759 33.637 66.1292C33.564 67.202 33.7446 68.2238 34.3686 69.1306C34.8649 69.8513 35.5655 70.3074 36.3391 70.6778C38.6563 71.7908 40.9717 72.9092 43.287 74.024C45.0258 74.8615 46.7664 75.6972 48.5034 76.5365C49.9174 77.2207 51.3461 77.8775 52.7382 78.6073C52.9955 78.7423 53.2363 78.9084 53.4844 79.0616C53.5264 79.0872 53.5611 79.1437 53.6176 79.1109C53.6705 79.0799 53.6486 79.0197 53.6486 78.9704C53.6505 78.3574 53.6486 77.7443 53.6486 77.1313C53.6486 74.6718 53.6486 72.2141 53.6486 69.7546C53.6486 69.4681 53.6778 69.1853 53.7545 68.9116C53.9789 68.0997 54.581 67.7348 55.351 67.5761C55.6885 67.5067 56.0297 67.4921 56.3745 67.4921C60.2845 67.494 64.1964 67.4903 68.1064 67.4903C72.1259 67.4903 76.1472 67.4757 80.1667 67.5013C82.6298 67.5177 84.8941 68.2055 86.8883 69.6944C86.9048 69.7072 86.9267 69.7144 86.9449 69.7236C86.9668 69.7382 86.9887 69.7509 87.0106 69.7655H87.0088C87.0234 69.7801 87.0398 69.7929 87.0544 69.8075L87.0562 69.8093C87.0708 69.8221 87.0854 69.8349 87.1 69.8476L87.1036 69.8513C87.1292 69.9024 87.1784 69.9243 87.2277 69.9443L87.2259 69.9425C87.2551 70.0118 87.3025 70.0502 87.3682 70.0666ZM17.9732 69.4499C20.0532 69.4499 22.1332 69.4481 24.2131 69.4517C24.3828 69.4517 24.4741 69.4371 24.4741 69.2218C24.4668 65.2735 24.4686 61.3252 24.4722 57.3768C24.4722 57.1962 24.4211 57.1396 24.2387 57.1396C20.2028 57.1451 16.1669 57.1433 12.131 57.1451C11.4467 57.1451 10.7735 57.2436 10.1385 57.4972C8.0695 58.3256 6.73211 59.8035 6.25407 61.9984C5.97492 63.2793 6.05337 64.5583 6.62993 65.7424C7.78487 68.1088 9.65869 69.4262 12.3444 69.4481C14.2219 69.4608 16.0975 69.4499 17.9732 69.4499Z" fill="#CC2128"/>
</svg>
